<svg width="17" height="17" fill="none" xmlns="http://www.w3.org/2000/svg"><path d="M5.454 2.687c-.047.03-.577.551-1.179 1.156-1.193 1.2-1.16 1.158-1.115 1.437.018.108.105.203 1.128 1.232.61.613 1.147 1.133 1.192 1.157.121.064.403.041.521-.044a.511.511 0 0 0 .122-.685c-.045-.069-.338-.381-.652-.693l-.57-.566 4.586-.014 4.585-.015.104-.079c.141-.107.189-.212.189-.411a.466.466 0 0 0-.207-.414l-.08-.059-4.589-.014-4.588-.014.57-.567c.314-.312.607-.623.652-.692a.512.512 0 0 0-.122-.686c-.129-.092-.425-.108-.547-.029m6.121 6.133c-.211.119-.303.418-.202.651.022.05.315.366.652.701l.612.609-4.585.014-4.586.014-.104.08a.462.462 0 0 0-.197.402c0 .156.051.278.154.372.161.146-.114.137 4.749.152l4.541.014-.556.553c-.648.643-.72.739-.72.956 0 .215.09.361.282.461.096.05.34.045.441-.009.047-.024.578-.539 1.18-1.144.926-.93 1.101-1.118 1.126-1.214.038-.139.038-.143 0-.283-.025-.096-.198-.282-1.112-1.199-.594-.597-1.128-1.11-1.186-1.14a.54.54 0 0 0-.489.01" fill-rule="evenodd" fill="#000"/></svg>