<svg version="1.0" xmlns="http://www.w3.org/2000/svg" width="1706.667" height="853.333" viewBox="0 0 1280 640"><path d="M1218.844 69.27c-19.362 9.036-34.202 26.177-40.036 46.244-5.852 20.133-3.94 36.563 6.485 55.717 8.226 15.113 21.841 25.689 169.668 131.794l59.317 42.575-680.828 1.422-680.828 1.422-13.301 7.82c-42.098 24.747-51.585 76.371-20.671 112.487 5.394 6.302 16.456 14.771 24.582 18.82l14.774 7.362 677.13.095 677.131.095-7.111 5.849c-3.912 3.217-51.535 42.291-105.83 86.831-91.658 75.19-99.284 82.138-106.62 97.131-25.057 51.216 15.632 110.784 71.718 104.996 8.215-.848 19.24-3.764 24.5-6.481 14.032-7.245 370.773-296.722 394.504-320.12 20.546-20.257 27.516-47.502 19.043-74.439-8.24-26.199 3.681-16.847-287.046-225.183-71.792-51.447-135.152-95.191-140.8-97.21-16.564-5.919-39.609-4.773-55.781 2.773" fill-rule="evenodd"/></svg>