<svg width="24" height="24" fill="none" xmlns="http://www.w3.org/2000/svg"><path d="M7.163 1.59a.97.97 0 0 0-.26.224c-.121.15-.123.162-.136.667l-.013.513-1.307.013-1.307.013-.244.113a1.698 1.698 0 0 0-.764.767l-.112.24v15.72l.112.24c.147.315.455.624.764.767l.244.113h15.72l.244-.113c.309-.143.617-.452.764-.767l.112-.24V4.14l-.113-.244a1.698 1.698 0 0 0-.767-.764l-.24-.112-1.307-.013-1.307-.013-.013-.513c-.013-.505-.015-.517-.136-.667a.714.714 0 0 0-.597-.294.714.714 0 0 0-.597.294c-.121.151-.123.162-.136.67L15.754 3H8.246l-.013-.516c-.013-.508-.015-.519-.136-.67A.714.714 0 0 0 7.5 1.52a.877.877 0 0 0-.337.07M6.76 5.003c.018.461.029.517.127.665.126.19.388.332.613.332a.796.796 0 0 0 .613-.332c.098-.148.109-.204.127-.665l.02-.503h7.48l.02.503c.018.461.029.517.127.665.126.19.388.332.613.332a.796.796 0 0 0 .613-.332c.098-.148.109-.204.127-.665l.02-.503h2.24v3h-15l-.011-1.46c-.005-.803-.001-1.483.009-1.51.016-.04.262-.049 1.131-.041L6.74 4.5l.02.503m12.75 9.247-.01 5.25h-15l-.01-5.25L4.48 9h15.04l-.01 5.25M8.451 11.278c-.177.043-.305.134-.438.308-.098.128-.113.183-.113.417 0 .242.013.285.124.423.23.284.317.312 1.024.328l.628.014-.264.326c-.416.514-.489.752-.335 1.091.11.242.298.366.66.436.366.07.414.093.577.278.151.172.181.279.158.56-.047.567-.703.852-1.164.506-.288-.216-.396-.261-.632-.262-.419-.003-.716.307-.716.745.001.333.197.587.668.865.473.279 1.164.37 1.709.227 1.106-.292 1.835-1.453 1.614-2.572-.094-.48-.273-.813-.631-1.174l-.302-.306.414-.514c.444-.55.566-.757.567-.965.002-.262-.173-.547-.419-.683-.105-.058-.304-.067-1.56-.073-.792-.004-1.498.007-1.569.025m6.329.002c-.12.038-1.522 1.06-1.775 1.295a.742.742 0 0 0 .304 1.267c.237.067.473.007.736-.186l.191-.14.012 1.795.012 1.795.11.166c.292.44.969.44 1.26 0l.11-.166V11.78l-.095-.153c-.179-.289-.56-.441-.865-.347" fill-rule="evenodd" fill="#000"/></svg>